<mxfile host="app.diagrams.net" modified="2022-06-03T05:58:42.192Z" agent="5.0 (Windows NT 10.0; Win64; x64) AppleWebKit/537.36 (KHTML, like Gecko) Chrome/101.0.4951.67 Safari/537.36" etag="T6aOgQjJCaVMV2bVUEuj" version="18.1.1" type="github">
  <diagram id="zS0Se3hdwLQitdmpyFe8" name="Page-1">
    <mxGraphModel dx="1277" dy="1112" grid="0" gridSize="10" guides="1" tooltips="1" connect="1" arrows="1" fold="1" page="0" pageScale="1" pageWidth="850" pageHeight="1100" background="#FFFFFF" math="0" shadow="0">
      <root>
        <mxCell id="0" />
        <mxCell id="1" parent="0" />
        <mxCell id="NRysxFIgi6pyTUOMa4tL-1" value="US-East-1" style="swimlane;" vertex="1" parent="1">
          <mxGeometry x="10" y="90" width="830" height="950" as="geometry" />
        </mxCell>
        <mxCell id="NRysxFIgi6pyTUOMa4tL-2" value="VPC" style="points=[[0,0],[0.25,0],[0.5,0],[0.75,0],[1,0],[1,0.25],[1,0.5],[1,0.75],[1,1],[0.75,1],[0.5,1],[0.25,1],[0,1],[0,0.75],[0,0.5],[0,0.25]];outlineConnect=0;gradientColor=none;html=1;whiteSpace=wrap;fontSize=12;fontStyle=0;container=1;pointerEvents=0;collapsible=0;recursiveResize=0;shape=mxgraph.aws4.group;grIcon=mxgraph.aws4.group_vpc;strokeColor=#248814;fillColor=none;verticalAlign=top;align=left;spacingLeft=30;fontColor=#AAB7B8;dashed=0;" vertex="1" parent="NRysxFIgi6pyTUOMa4tL-1">
          <mxGeometry x="20" y="40" width="790" height="890" as="geometry" />
        </mxCell>
        <mxCell id="NRysxFIgi6pyTUOMa4tL-7" value="AZ us-east-1a" style="fillColor=none;strokeColor=#147EBA;dashed=1;verticalAlign=top;fontStyle=0;fontColor=#147EBA;" vertex="1" parent="NRysxFIgi6pyTUOMa4tL-2">
          <mxGeometry x="18" y="50" width="282" height="785" as="geometry" />
        </mxCell>
        <mxCell id="NRysxFIgi6pyTUOMa4tL-6" value="AZ us-east-1b" style="fillColor=none;strokeColor=#147EBA;dashed=1;verticalAlign=top;fontStyle=0;fontColor=#147EBA;" vertex="1" parent="NRysxFIgi6pyTUOMa4tL-2">
          <mxGeometry x="490" y="50" width="280" height="784" as="geometry" />
        </mxCell>
        <mxCell id="NRysxFIgi6pyTUOMa4tL-18" value="Public Web Subnet 1" style="sketch=0;outlineConnect=0;gradientColor=none;html=1;whiteSpace=wrap;fontSize=12;fontStyle=0;shape=mxgraph.aws4.group;grIcon=mxgraph.aws4.group_subnet;strokeColor=#E8E8E8;fillColor=none;verticalAlign=top;align=left;spacingLeft=30;fontColor=#E8E8E8;dashed=0;" vertex="1" parent="NRysxFIgi6pyTUOMa4tL-2">
          <mxGeometry x="50" y="90" width="220" height="220" as="geometry" />
        </mxCell>
        <mxCell id="NRysxFIgi6pyTUOMa4tL-19" value="Private App Subnet 1" style="sketch=0;outlineConnect=0;gradientColor=none;html=1;whiteSpace=wrap;fontSize=12;fontStyle=0;shape=mxgraph.aws4.group;grIcon=mxgraph.aws4.group_subnet;strokeColor=#E8E8E8;fillColor=none;verticalAlign=top;align=left;spacingLeft=30;fontColor=#E8E8E8;dashed=0;" vertex="1" parent="NRysxFIgi6pyTUOMa4tL-2">
          <mxGeometry x="50" y="340" width="220" height="220" as="geometry" />
        </mxCell>
        <mxCell id="NRysxFIgi6pyTUOMa4tL-20" value="Private Data Subnet 1" style="sketch=0;outlineConnect=0;gradientColor=none;html=1;whiteSpace=wrap;fontSize=12;fontStyle=0;shape=mxgraph.aws4.group;grIcon=mxgraph.aws4.group_subnet;strokeColor=#E8E8E8;fillColor=none;verticalAlign=top;align=left;spacingLeft=30;fontColor=#E8E8E8;dashed=0;" vertex="1" parent="NRysxFIgi6pyTUOMa4tL-2">
          <mxGeometry x="50" y="590" width="220" height="220" as="geometry" />
        </mxCell>
        <mxCell id="NRysxFIgi6pyTUOMa4tL-21" value="Public Web Subnet 2" style="sketch=0;outlineConnect=0;gradientColor=none;html=1;whiteSpace=wrap;fontSize=12;fontStyle=0;shape=mxgraph.aws4.group;grIcon=mxgraph.aws4.group_subnet;strokeColor=#E8E8E8;fillColor=none;verticalAlign=top;align=left;spacingLeft=30;fontColor=#E8E8E8;dashed=0;" vertex="1" parent="NRysxFIgi6pyTUOMa4tL-2">
          <mxGeometry x="520" y="90" width="220" height="220" as="geometry" />
        </mxCell>
        <mxCell id="NRysxFIgi6pyTUOMa4tL-22" value="Private App Subnet 2" style="sketch=0;outlineConnect=0;gradientColor=none;html=1;whiteSpace=wrap;fontSize=12;fontStyle=0;shape=mxgraph.aws4.group;grIcon=mxgraph.aws4.group_subnet;strokeColor=#E8E8E8;fillColor=none;verticalAlign=top;align=left;spacingLeft=30;fontColor=#E8E8E8;dashed=0;" vertex="1" parent="NRysxFIgi6pyTUOMa4tL-2">
          <mxGeometry x="520" y="340" width="220" height="220" as="geometry" />
        </mxCell>
        <mxCell id="NRysxFIgi6pyTUOMa4tL-23" value="Private Data Subnet 2" style="sketch=0;outlineConnect=0;gradientColor=none;html=1;whiteSpace=wrap;fontSize=12;fontStyle=0;shape=mxgraph.aws4.group;grIcon=mxgraph.aws4.group_subnet;strokeColor=#E8E8E8;fillColor=none;verticalAlign=top;align=left;spacingLeft=30;fontColor=#E8E8E8;dashed=0;" vertex="1" parent="NRysxFIgi6pyTUOMa4tL-2">
          <mxGeometry x="520" y="590" width="220" height="220" as="geometry" />
        </mxCell>
        <mxCell id="NRysxFIgi6pyTUOMa4tL-25" value="Internet&#xa;gateway" style="sketch=0;outlineConnect=0;fontColor=#232F3E;gradientColor=none;strokeColor=#232F3E;fillColor=#ffffff;dashed=0;verticalLabelPosition=bottom;verticalAlign=top;align=center;html=1;fontSize=12;fontStyle=0;aspect=fixed;shape=mxgraph.aws4.resourceIcon;resIcon=mxgraph.aws4.internet_gateway;" vertex="1" parent="NRysxFIgi6pyTUOMa4tL-2">
          <mxGeometry x="368.5" y="-12" width="53" height="53" as="geometry" />
        </mxCell>
        <mxCell id="NRysxFIgi6pyTUOMa4tL-26" value="NAT gateway" style="sketch=0;outlineConnect=0;fontColor=#232F3E;gradientColor=none;strokeColor=#232F3E;fillColor=#ffffff;dashed=0;verticalLabelPosition=bottom;verticalAlign=top;align=center;html=1;fontSize=12;fontStyle=0;aspect=fixed;shape=mxgraph.aws4.resourceIcon;resIcon=mxgraph.aws4.nat_gateway;" vertex="1" parent="NRysxFIgi6pyTUOMa4tL-2">
          <mxGeometry x="670" y="100" width="60" height="60" as="geometry" />
        </mxCell>
        <mxCell id="NRysxFIgi6pyTUOMa4tL-27" value="Web Tier Security Group" style="fontStyle=0;verticalAlign=top;align=center;spacingTop=-2;fillColor=none;rounded=0;whiteSpace=wrap;html=1;strokeColor=#FF0000;strokeWidth=2;dashed=1;container=1;collapsible=0;expand=0;recursiveResize=0;" vertex="1" parent="NRysxFIgi6pyTUOMa4tL-2">
          <mxGeometry x="40" y="80" width="710" height="240" as="geometry" />
        </mxCell>
        <mxCell id="NRysxFIgi6pyTUOMa4tL-32" value="&lt;font color=&quot;#ffffff&quot;&gt;EC2&lt;/font&gt;" style="sketch=0;outlineConnect=0;fontColor=#232F3E;gradientColor=none;strokeColor=#ffffff;fillColor=#232F3E;dashed=0;verticalLabelPosition=middle;verticalAlign=bottom;align=center;html=1;whiteSpace=wrap;fontSize=10;fontStyle=1;spacing=3;shape=mxgraph.aws4.productIcon;prIcon=mxgraph.aws4.ec2;" vertex="1" parent="NRysxFIgi6pyTUOMa4tL-27">
          <mxGeometry x="40" y="110" width="60" height="77.5" as="geometry" />
        </mxCell>
        <mxCell id="NRysxFIgi6pyTUOMa4tL-33" value="&lt;font color=&quot;#ffffff&quot;&gt;EC2&lt;/font&gt;" style="sketch=0;outlineConnect=0;fontColor=#232F3E;gradientColor=none;strokeColor=#ffffff;fillColor=#232F3E;dashed=0;verticalLabelPosition=middle;verticalAlign=bottom;align=center;html=1;whiteSpace=wrap;fontSize=10;fontStyle=1;spacing=3;shape=mxgraph.aws4.productIcon;prIcon=mxgraph.aws4.ec2;" vertex="1" parent="NRysxFIgi6pyTUOMa4tL-27">
          <mxGeometry x="140" y="110" width="60" height="77.5" as="geometry" />
        </mxCell>
        <mxCell id="NRysxFIgi6pyTUOMa4tL-36" value="&lt;span style=&quot;color: rgb(255, 255, 255);&quot;&gt;EC2&lt;/span&gt;" style="sketch=0;outlineConnect=0;fontColor=#232F3E;gradientColor=none;strokeColor=#ffffff;fillColor=#232F3E;dashed=0;verticalLabelPosition=middle;verticalAlign=bottom;align=center;html=1;whiteSpace=wrap;fontSize=10;fontStyle=1;spacing=3;shape=mxgraph.aws4.productIcon;prIcon=mxgraph.aws4.ec2;" vertex="1" parent="NRysxFIgi6pyTUOMa4tL-27">
          <mxGeometry x="510" y="110" width="60" height="77.5" as="geometry" />
        </mxCell>
        <mxCell id="NRysxFIgi6pyTUOMa4tL-37" value="&lt;span style=&quot;color: rgb(255, 255, 255);&quot;&gt;EC2&lt;/span&gt;" style="sketch=0;outlineConnect=0;fontColor=#232F3E;gradientColor=none;strokeColor=#ffffff;fillColor=#232F3E;dashed=0;verticalLabelPosition=middle;verticalAlign=bottom;align=center;html=1;whiteSpace=wrap;fontSize=10;fontStyle=1;spacing=3;shape=mxgraph.aws4.productIcon;prIcon=mxgraph.aws4.ec2;" vertex="1" parent="NRysxFIgi6pyTUOMa4tL-27">
          <mxGeometry x="610" y="110" width="60" height="77.5" as="geometry" />
        </mxCell>
        <mxCell id="NRysxFIgi6pyTUOMa4tL-157" value="Auto Scaling group" style="points=[[0,0],[0.25,0],[0.5,0],[0.75,0],[1,0],[1,0.25],[1,0.5],[1,0.75],[1,1],[0.75,1],[0.5,1],[0.25,1],[0,1],[0,0.75],[0,0.5],[0,0.25]];outlineConnect=0;gradientColor=none;html=1;whiteSpace=wrap;fontSize=12;fontStyle=0;container=1;pointerEvents=0;collapsible=0;recursiveResize=0;shape=mxgraph.aws4.groupCenter;grIcon=mxgraph.aws4.group_auto_scaling_group;grStroke=1;strokeColor=#D86613;fillColor=none;verticalAlign=top;align=center;fontColor=#D86613;dashed=1;spacingTop=25;" vertex="1" parent="NRysxFIgi6pyTUOMa4tL-27">
          <mxGeometry x="30" y="98.12" width="650" height="101.25" as="geometry" />
        </mxCell>
        <mxCell id="NRysxFIgi6pyTUOMa4tL-28" value="App Tier Security Group" style="fontStyle=0;verticalAlign=top;align=center;spacingTop=-2;fillColor=none;rounded=0;whiteSpace=wrap;html=1;strokeColor=#FF0000;strokeWidth=2;dashed=1;container=1;collapsible=0;expand=0;recursiveResize=0;" vertex="1" parent="NRysxFIgi6pyTUOMa4tL-2">
          <mxGeometry x="40" y="330" width="710" height="240" as="geometry" />
        </mxCell>
        <mxCell id="NRysxFIgi6pyTUOMa4tL-30" value="&lt;font color=&quot;#ffffff&quot;&gt;EC2&lt;/font&gt;" style="sketch=0;outlineConnect=0;fontColor=#232F3E;gradientColor=none;strokeColor=#ffffff;fillColor=#232F3E;dashed=0;verticalLabelPosition=middle;verticalAlign=bottom;align=center;html=1;whiteSpace=wrap;fontSize=10;fontStyle=1;spacing=3;shape=mxgraph.aws4.productIcon;prIcon=mxgraph.aws4.ec2;" vertex="1" parent="NRysxFIgi6pyTUOMa4tL-28">
          <mxGeometry x="40" y="81.25" width="60" height="77.5" as="geometry" />
        </mxCell>
        <mxCell id="NRysxFIgi6pyTUOMa4tL-31" value="&lt;font color=&quot;#ffffff&quot;&gt;EC2&lt;/font&gt;" style="sketch=0;outlineConnect=0;fontColor=#232F3E;gradientColor=none;strokeColor=#ffffff;fillColor=#232F3E;dashed=0;verticalLabelPosition=middle;verticalAlign=bottom;align=center;html=1;whiteSpace=wrap;fontSize=10;fontStyle=1;spacing=3;shape=mxgraph.aws4.productIcon;prIcon=mxgraph.aws4.ec2;" vertex="1" parent="NRysxFIgi6pyTUOMa4tL-28">
          <mxGeometry x="140" y="81.25" width="60" height="77.5" as="geometry" />
        </mxCell>
        <mxCell id="NRysxFIgi6pyTUOMa4tL-34" value="&lt;font color=&quot;#ffffff&quot;&gt;EC2&lt;/font&gt;" style="sketch=0;outlineConnect=0;fontColor=#232F3E;gradientColor=none;strokeColor=#ffffff;fillColor=#232F3E;dashed=0;verticalLabelPosition=middle;verticalAlign=bottom;align=center;html=1;whiteSpace=wrap;fontSize=10;fontStyle=1;spacing=3;shape=mxgraph.aws4.productIcon;prIcon=mxgraph.aws4.ec2;" vertex="1" parent="NRysxFIgi6pyTUOMa4tL-28">
          <mxGeometry x="510" y="81.25" width="60" height="77.5" as="geometry" />
        </mxCell>
        <mxCell id="NRysxFIgi6pyTUOMa4tL-35" value="&lt;span style=&quot;color: rgb(255, 255, 255);&quot;&gt;EC2&lt;/span&gt;" style="sketch=0;outlineConnect=0;fontColor=#232F3E;gradientColor=none;strokeColor=#ffffff;fillColor=#232F3E;dashed=0;verticalLabelPosition=middle;verticalAlign=bottom;align=center;html=1;whiteSpace=wrap;fontSize=10;fontStyle=1;spacing=3;shape=mxgraph.aws4.productIcon;prIcon=mxgraph.aws4.ec2;" vertex="1" parent="NRysxFIgi6pyTUOMa4tL-28">
          <mxGeometry x="610" y="81.25" width="60" height="77.5" as="geometry" />
        </mxCell>
        <mxCell id="NRysxFIgi6pyTUOMa4tL-41" value="Auto Scaling group" style="points=[[0,0],[0.25,0],[0.5,0],[0.75,0],[1,0],[1,0.25],[1,0.5],[1,0.75],[1,1],[0.75,1],[0.5,1],[0.25,1],[0,1],[0,0.75],[0,0.5],[0,0.25]];outlineConnect=0;gradientColor=none;html=1;whiteSpace=wrap;fontSize=12;fontStyle=0;container=1;pointerEvents=0;collapsible=0;recursiveResize=0;shape=mxgraph.aws4.groupCenter;grIcon=mxgraph.aws4.group_auto_scaling_group;grStroke=1;strokeColor=#D86613;fillColor=none;verticalAlign=top;align=center;fontColor=#D86613;dashed=1;spacingTop=25;" vertex="1" parent="NRysxFIgi6pyTUOMa4tL-28">
          <mxGeometry x="30" y="69.38" width="650" height="101.25" as="geometry" />
        </mxCell>
        <mxCell id="NRysxFIgi6pyTUOMa4tL-29" value="Data Tier Security Group" style="fontStyle=0;verticalAlign=top;align=center;spacingTop=-2;fillColor=none;rounded=0;whiteSpace=wrap;html=1;strokeColor=#FF0000;strokeWidth=2;dashed=1;container=1;collapsible=0;expand=0;recursiveResize=0;" vertex="1" parent="NRysxFIgi6pyTUOMa4tL-2">
          <mxGeometry x="40" y="580" width="710" height="240" as="geometry" />
        </mxCell>
        <mxCell id="NRysxFIgi6pyTUOMa4tL-38" value="RDS" style="sketch=0;outlineConnect=0;fontColor=#232F3E;gradientColor=none;strokeColor=#ffffff;fillColor=#232F3E;dashed=0;verticalLabelPosition=middle;verticalAlign=bottom;align=center;html=1;whiteSpace=wrap;fontSize=10;fontStyle=1;spacing=3;shape=mxgraph.aws4.productIcon;prIcon=mxgraph.aws4.rds;" vertex="1" parent="NRysxFIgi6pyTUOMa4tL-29">
          <mxGeometry x="90" y="80.62" width="60" height="78.75" as="geometry" />
        </mxCell>
        <mxCell id="NRysxFIgi6pyTUOMa4tL-39" value="RDS" style="sketch=0;outlineConnect=0;fontColor=#232F3E;gradientColor=none;strokeColor=#ffffff;fillColor=#232F3E;dashed=0;verticalLabelPosition=middle;verticalAlign=bottom;align=center;html=1;whiteSpace=wrap;fontSize=10;fontStyle=1;spacing=3;shape=mxgraph.aws4.productIcon;prIcon=mxgraph.aws4.rds;" vertex="1" parent="NRysxFIgi6pyTUOMa4tL-29">
          <mxGeometry x="560" y="80.62" width="60" height="78.75" as="geometry" />
        </mxCell>
        <mxCell id="NRysxFIgi6pyTUOMa4tL-158" value="" style="sketch=0;points=[[0,0,0],[0.25,0,0],[0.5,0,0],[0.75,0,0],[1,0,0],[0,1,0],[0.25,1,0],[0.5,1,0],[0.75,1,0],[1,1,0],[0,0.25,0],[0,0.5,0],[0,0.75,0],[1,0.25,0],[1,0.5,0],[1,0.75,0]];outlineConnect=0;fontColor=#232F3E;gradientColor=#4D72F3;gradientDirection=north;fillColor=#3334B9;strokeColor=#ffffff;dashed=0;verticalLabelPosition=bottom;verticalAlign=top;align=center;html=1;fontSize=12;fontStyle=0;aspect=fixed;shape=mxgraph.aws4.resourceIcon;resIcon=mxgraph.aws4.rds;" vertex="1" parent="NRysxFIgi6pyTUOMa4tL-29">
          <mxGeometry x="316" y="81.37" width="78" height="78" as="geometry" />
        </mxCell>
      </root>
    </mxGraphModel>
  </diagram>
</mxfile>
